<mxfile host="app.diagrams.net" modified="2020-03-17T20:21:47.142Z" agent="Mozilla/5.0 (Windows NT 10.0; Win64; x64) AppleWebKit/537.36 (KHTML, like Gecko) Chrome/80.0.3987.132 Safari/537.36" etag="ocIX_TV6AsjtbbRROFWc" version="12.8.6" type="github">
  <diagram id="s-fJWoQtj2VFVK5msN_l" name="Page-1">
    <mxGraphModel dx="2315" dy="1200" grid="1" gridSize="10" guides="1" tooltips="1" connect="1" arrows="1" fold="1" page="1" pageScale="1" pageWidth="827" pageHeight="1169" math="0" shadow="0">
      <root>
        <mxCell id="0" />
        <mxCell id="1" parent="0" />
        <mxCell id="IQOuE0TxBNfk_iXKN2kF-1" style="edgeStyle=orthogonalEdgeStyle;curved=1;comic=0;orthogonalLoop=1;jettySize=auto;html=1;exitX=0.5;exitY=1;exitDx=0;exitDy=0;shadow=0;startArrow=classic;startFill=1;endArrow=none;endFill=0;" edge="1" parent="1" source="EgX6zlfz2IxhlC0AGUEL-5" target="EgX6zlfz2IxhlC0AGUEL-25">
          <mxGeometry relative="1" as="geometry" />
        </mxCell>
        <mxCell id="IQOuE0TxBNfk_iXKN2kF-7" style="edgeStyle=orthogonalEdgeStyle;curved=1;comic=0;orthogonalLoop=1;jettySize=auto;html=1;shadow=0;startArrow=classic;startFill=1;endArrow=none;endFill=0;exitX=0.5;exitY=1;exitDx=0;exitDy=0;" edge="1" parent="1" source="EgX6zlfz2IxhlC0AGUEL-5" target="EgX6zlfz2IxhlC0AGUEL-37">
          <mxGeometry relative="1" as="geometry" />
        </mxCell>
        <mxCell id="EgX6zlfz2IxhlC0AGUEL-5" value="sbeo:Device" style="ellipse;whiteSpace=wrap;html=1;aspect=fixed;fillColor=#dae8fc;strokeColor=#6c8ebf;" parent="1" vertex="1">
          <mxGeometry x="-50" y="310" width="80" height="80" as="geometry" />
        </mxCell>
        <mxCell id="EgX6zlfz2IxhlC0AGUEL-6" value="seas:Zone&lt;br&gt;Connection" style="ellipse;whiteSpace=wrap;html=1;aspect=fixed;fillColor=#1ba1e2;strokeColor=#006EAF;fontColor=#ffffff;" parent="1" vertex="1">
          <mxGeometry x="1080" y="240" width="80" height="80" as="geometry" />
        </mxCell>
        <mxCell id="EgX6zlfz2IxhlC0AGUEL-8" value="sbeo:Person" style="ellipse;whiteSpace=wrap;html=1;aspect=fixed;fillColor=#dae8fc;strokeColor=#6c8ebf;" parent="1" vertex="1">
          <mxGeometry x="-380" y="160" width="80" height="80" as="geometry" />
        </mxCell>
        <mxCell id="IQOuE0TxBNfk_iXKN2kF-24" style="edgeStyle=orthogonalEdgeStyle;curved=1;comic=0;orthogonalLoop=1;jettySize=auto;html=1;entryX=1;entryY=0.5;entryDx=0;entryDy=0;shadow=0;startArrow=classic;startFill=1;endArrow=none;endFill=0;" edge="1" parent="1" source="EgX6zlfz2IxhlC0AGUEL-9" target="IQOuE0TxBNfk_iXKN2kF-23">
          <mxGeometry relative="1" as="geometry" />
        </mxCell>
        <mxCell id="IQOuE0TxBNfk_iXKN2kF-25" style="edgeStyle=orthogonalEdgeStyle;curved=1;comic=0;orthogonalLoop=1;jettySize=auto;html=1;entryX=1;entryY=0.5;entryDx=0;entryDy=0;shadow=0;startArrow=classic;startFill=1;endArrow=none;endFill=0;" edge="1" parent="1" source="EgX6zlfz2IxhlC0AGUEL-9" target="IQOuE0TxBNfk_iXKN2kF-17">
          <mxGeometry relative="1" as="geometry">
            <Array as="points">
              <mxPoint x="410" y="290" />
              <mxPoint x="410" y="390" />
            </Array>
          </mxGeometry>
        </mxCell>
        <mxCell id="IQOuE0TxBNfk_iXKN2kF-27" style="edgeStyle=orthogonalEdgeStyle;curved=1;comic=0;orthogonalLoop=1;jettySize=auto;html=1;exitX=0.5;exitY=1;exitDx=0;exitDy=0;entryX=0.5;entryY=0;entryDx=0;entryDy=0;shadow=0;startArrow=classic;startFill=1;endArrow=none;endFill=0;" edge="1" parent="1" source="EgX6zlfz2IxhlC0AGUEL-9" target="IQOuE0TxBNfk_iXKN2kF-20">
          <mxGeometry relative="1" as="geometry" />
        </mxCell>
        <mxCell id="IQOuE0TxBNfk_iXKN2kF-28" style="edgeStyle=orthogonalEdgeStyle;curved=1;comic=0;orthogonalLoop=1;jettySize=auto;html=1;entryX=0.5;entryY=0;entryDx=0;entryDy=0;shadow=0;startArrow=classic;startFill=1;endArrow=none;endFill=0;" edge="1" parent="1" source="EgX6zlfz2IxhlC0AGUEL-9" target="IQOuE0TxBNfk_iXKN2kF-19">
          <mxGeometry relative="1" as="geometry" />
        </mxCell>
        <mxCell id="IQOuE0TxBNfk_iXKN2kF-29" style="edgeStyle=orthogonalEdgeStyle;curved=1;comic=0;orthogonalLoop=1;jettySize=auto;html=1;entryX=0.5;entryY=0;entryDx=0;entryDy=0;shadow=0;startArrow=classic;startFill=1;endArrow=none;endFill=0;exitX=1;exitY=0.5;exitDx=0;exitDy=0;" edge="1" parent="1" source="EgX6zlfz2IxhlC0AGUEL-9" target="IQOuE0TxBNfk_iXKN2kF-21">
          <mxGeometry relative="1" as="geometry" />
        </mxCell>
        <mxCell id="IQOuE0TxBNfk_iXKN2kF-31" style="edgeStyle=orthogonalEdgeStyle;curved=1;comic=0;orthogonalLoop=1;jettySize=auto;html=1;exitX=0;exitY=1;exitDx=0;exitDy=0;entryX=1;entryY=0;entryDx=0;entryDy=0;shadow=0;startArrow=classic;startFill=1;endArrow=none;endFill=0;" edge="1" parent="1" source="EgX6zlfz2IxhlC0AGUEL-9" target="IQOuE0TxBNfk_iXKN2kF-22">
          <mxGeometry relative="1" as="geometry" />
        </mxCell>
        <mxCell id="EgX6zlfz2IxhlC0AGUEL-9" value="sbeo:Incident" style="ellipse;whiteSpace=wrap;html=1;aspect=fixed;fillColor=#dae8fc;strokeColor=#6c8ebf;" parent="1" vertex="1">
          <mxGeometry x="500" y="250" width="80" height="80" as="geometry" />
        </mxCell>
        <mxCell id="EgX6zlfz2IxhlC0AGUEL-10" value="Route" style="ellipse;whiteSpace=wrap;html=1;aspect=fixed;fillColor=#dae8fc;strokeColor=#6c8ebf;" parent="1" vertex="1">
          <mxGeometry x="-510" y="160" width="80" height="80" as="geometry" />
        </mxCell>
        <mxCell id="EgX6zlfz2IxhlC0AGUEL-11" value="sbeo:Space&lt;br&gt;Characteristic" style="ellipse;aspect=fixed;fillColor=#dae8fc;strokeColor=#6c8ebf;horizontal=1;verticalAlign=middle;align=center;labelBorderColor=none;whiteSpace=wrap;html=1;" parent="1" vertex="1">
          <mxGeometry x="734" y="240" width="80" height="80" as="geometry" />
        </mxCell>
        <mxCell id="EgX6zlfz2IxhlC0AGUEL-67" style="edgeStyle=orthogonalEdgeStyle;curved=1;comic=0;orthogonalLoop=1;jettySize=auto;html=1;entryX=0.5;entryY=0;entryDx=0;entryDy=0;shadow=0;startArrow=classic;startFill=1;endArrow=none;endFill=0;" parent="1" source="EgX6zlfz2IxhlC0AGUEL-14" target="EgX6zlfz2IxhlC0AGUEL-26" edge="1">
          <mxGeometry relative="1" as="geometry" />
        </mxCell>
        <mxCell id="EgX6zlfz2IxhlC0AGUEL-14" value="seas:Zone" style="ellipse;whiteSpace=wrap;html=1;aspect=fixed;fillColor=#1ba1e2;strokeColor=#006EAF;fontColor=#ffffff;" parent="1" vertex="1">
          <mxGeometry x="860" y="239.99999999999977" width="80" height="80" as="geometry" />
        </mxCell>
        <mxCell id="EgX6zlfz2IxhlC0AGUEL-15" value="seas:Zone&lt;br&gt;Frontier" style="ellipse;whiteSpace=wrap;html=1;aspect=fixed;fillColor=#1ba1e2;strokeColor=#006EAF;fontColor=#ffffff;" parent="1" vertex="1">
          <mxGeometry x="970" y="239.99999999999977" width="80" height="80" as="geometry" />
        </mxCell>
        <mxCell id="EgX6zlfz2IxhlC0AGUEL-58" style="edgeStyle=orthogonalEdgeStyle;curved=1;comic=0;orthogonalLoop=1;jettySize=auto;html=1;exitX=0.5;exitY=1;exitDx=0;exitDy=0;entryX=0.5;entryY=0;entryDx=0;entryDy=0;shadow=0;startArrow=classic;startFill=1;endArrow=none;endFill=0;" parent="1" source="EgX6zlfz2IxhlC0AGUEL-16" target="EgX6zlfz2IxhlC0AGUEL-5" edge="1">
          <mxGeometry relative="1" as="geometry" />
        </mxCell>
        <mxCell id="EgX6zlfz2IxhlC0AGUEL-59" style="edgeStyle=orthogonalEdgeStyle;curved=1;comic=0;orthogonalLoop=1;jettySize=auto;html=1;exitX=0.5;exitY=1;exitDx=0;exitDy=0;entryX=0.5;entryY=0;entryDx=0;entryDy=0;shadow=0;startArrow=classic;startFill=1;endArrow=none;endFill=0;" parent="1" source="EgX6zlfz2IxhlC0AGUEL-16" target="EgX6zlfz2IxhlC0AGUEL-9" edge="1">
          <mxGeometry relative="1" as="geometry" />
        </mxCell>
        <mxCell id="EgX6zlfz2IxhlC0AGUEL-62" style="edgeStyle=orthogonalEdgeStyle;curved=1;comic=0;orthogonalLoop=1;jettySize=auto;html=1;exitX=0.5;exitY=1;exitDx=0;exitDy=0;shadow=0;startArrow=classic;startFill=1;endArrow=none;endFill=0;" parent="1" source="EgX6zlfz2IxhlC0AGUEL-16" target="EgX6zlfz2IxhlC0AGUEL-11" edge="1">
          <mxGeometry relative="1" as="geometry" />
        </mxCell>
        <mxCell id="EgX6zlfz2IxhlC0AGUEL-63" style="edgeStyle=orthogonalEdgeStyle;curved=1;comic=0;orthogonalLoop=1;jettySize=auto;html=1;exitX=0.5;exitY=1;exitDx=0;exitDy=0;entryX=0.5;entryY=0;entryDx=0;entryDy=0;shadow=0;startArrow=classic;startFill=1;endArrow=none;endFill=0;" parent="1" source="EgX6zlfz2IxhlC0AGUEL-16" target="EgX6zlfz2IxhlC0AGUEL-14" edge="1">
          <mxGeometry relative="1" as="geometry" />
        </mxCell>
        <mxCell id="EgX6zlfz2IxhlC0AGUEL-64" style="edgeStyle=orthogonalEdgeStyle;curved=1;comic=0;orthogonalLoop=1;jettySize=auto;html=1;exitX=0.5;exitY=1;exitDx=0;exitDy=0;entryX=0.5;entryY=0;entryDx=0;entryDy=0;shadow=0;startArrow=classic;startFill=1;endArrow=none;endFill=0;" parent="1" source="EgX6zlfz2IxhlC0AGUEL-16" target="EgX6zlfz2IxhlC0AGUEL-15" edge="1">
          <mxGeometry relative="1" as="geometry" />
        </mxCell>
        <mxCell id="EgX6zlfz2IxhlC0AGUEL-65" style="edgeStyle=orthogonalEdgeStyle;curved=1;comic=0;orthogonalLoop=1;jettySize=auto;html=1;exitX=0.5;exitY=1;exitDx=0;exitDy=0;entryX=0.5;entryY=0;entryDx=0;entryDy=0;shadow=0;startArrow=classic;startFill=1;endArrow=none;endFill=0;" parent="1" source="EgX6zlfz2IxhlC0AGUEL-16" target="EgX6zlfz2IxhlC0AGUEL-6" edge="1">
          <mxGeometry relative="1" as="geometry" />
        </mxCell>
        <mxCell id="IQOuE0TxBNfk_iXKN2kF-14" style="edgeStyle=orthogonalEdgeStyle;curved=1;comic=0;orthogonalLoop=1;jettySize=auto;html=1;shadow=0;startArrow=classic;startFill=1;endArrow=none;endFill=0;" edge="1" parent="1" source="EgX6zlfz2IxhlC0AGUEL-16" target="IQOuE0TxBNfk_iXKN2kF-13">
          <mxGeometry relative="1" as="geometry" />
        </mxCell>
        <mxCell id="IQOuE0TxBNfk_iXKN2kF-15" style="edgeStyle=orthogonalEdgeStyle;curved=1;comic=0;orthogonalLoop=1;jettySize=auto;html=1;shadow=0;startArrow=classic;startFill=1;endArrow=none;endFill=0;" edge="1" parent="1" source="EgX6zlfz2IxhlC0AGUEL-16" target="EgX6zlfz2IxhlC0AGUEL-10">
          <mxGeometry relative="1" as="geometry" />
        </mxCell>
        <mxCell id="IQOuE0TxBNfk_iXKN2kF-16" style="edgeStyle=orthogonalEdgeStyle;curved=1;comic=0;orthogonalLoop=1;jettySize=auto;html=1;entryX=0.5;entryY=0;entryDx=0;entryDy=0;shadow=0;startArrow=classic;startFill=1;endArrow=none;endFill=0;" edge="1" parent="1" source="EgX6zlfz2IxhlC0AGUEL-16" target="EgX6zlfz2IxhlC0AGUEL-8">
          <mxGeometry relative="1" as="geometry" />
        </mxCell>
        <mxCell id="EgX6zlfz2IxhlC0AGUEL-16" value="owl:Thing" style="ellipse;whiteSpace=wrap;html=1;aspect=fixed;" parent="1" vertex="1">
          <mxGeometry x="120" y="20" width="80" height="80" as="geometry" />
        </mxCell>
        <mxCell id="IQOuE0TxBNfk_iXKN2kF-2" style="edgeStyle=orthogonalEdgeStyle;curved=1;comic=0;orthogonalLoop=1;jettySize=auto;html=1;exitX=0.5;exitY=1;exitDx=0;exitDy=0;shadow=0;startArrow=classic;startFill=1;endArrow=none;endFill=0;" edge="1" parent="1" source="EgX6zlfz2IxhlC0AGUEL-25" target="EgX6zlfz2IxhlC0AGUEL-38">
          <mxGeometry relative="1" as="geometry" />
        </mxCell>
        <mxCell id="EgX6zlfz2IxhlC0AGUEL-25" value="sbeo:Incident&lt;br&gt;Protection" style="ellipse;whiteSpace=wrap;html=1;aspect=fixed;fillColor=#dae8fc;strokeColor=#6c8ebf;" parent="1" vertex="1">
          <mxGeometry x="-50" y="460" width="80" height="80" as="geometry" />
        </mxCell>
        <mxCell id="EgX6zlfz2IxhlC0AGUEL-68" style="edgeStyle=orthogonalEdgeStyle;curved=1;comic=0;orthogonalLoop=1;jettySize=auto;html=1;shadow=0;startArrow=classic;startFill=1;endArrow=none;endFill=0;" parent="1" source="EgX6zlfz2IxhlC0AGUEL-26" target="EgX6zlfz2IxhlC0AGUEL-27" edge="1">
          <mxGeometry relative="1" as="geometry" />
        </mxCell>
        <mxCell id="EgX6zlfz2IxhlC0AGUEL-26" value="seas:Building&lt;br&gt;Space" style="ellipse;whiteSpace=wrap;html=1;aspect=fixed;fillColor=#1ba1e2;strokeColor=#006EAF;fontColor=#ffffff;" parent="1" vertex="1">
          <mxGeometry x="860" y="379.9999999999998" width="80" height="80" as="geometry" />
        </mxCell>
        <mxCell id="EgX6zlfz2IxhlC0AGUEL-69" style="edgeStyle=orthogonalEdgeStyle;curved=1;comic=0;orthogonalLoop=1;jettySize=auto;html=1;exitX=0.5;exitY=1;exitDx=0;exitDy=0;shadow=0;startArrow=classic;startFill=1;endArrow=none;endFill=0;entryX=0.5;entryY=0;entryDx=0;entryDy=0;" parent="1" source="EgX6zlfz2IxhlC0AGUEL-27" target="EgX6zlfz2IxhlC0AGUEL-28" edge="1">
          <mxGeometry relative="1" as="geometry" />
        </mxCell>
        <mxCell id="EgX6zlfz2IxhlC0AGUEL-70" style="edgeStyle=orthogonalEdgeStyle;curved=1;comic=0;orthogonalLoop=1;jettySize=auto;html=1;entryX=0.5;entryY=0;entryDx=0;entryDy=0;shadow=0;startArrow=classic;startFill=1;endArrow=none;endFill=0;" parent="1" source="EgX6zlfz2IxhlC0AGUEL-27" target="EgX6zlfz2IxhlC0AGUEL-29" edge="1">
          <mxGeometry relative="1" as="geometry" />
        </mxCell>
        <mxCell id="EgX6zlfz2IxhlC0AGUEL-27" value="seas:Room" style="ellipse;whiteSpace=wrap;html=1;aspect=fixed;fillColor=#1ba1e2;strokeColor=#006EAF;fontColor=#ffffff;" parent="1" vertex="1">
          <mxGeometry x="857" y="519.9999999999998" width="80" height="80" as="geometry" />
        </mxCell>
        <mxCell id="EgX6zlfz2IxhlC0AGUEL-28" value="sbeo:DayCare" style="ellipse;whiteSpace=wrap;html=1;aspect=fixed;fillColor=#dae8fc;strokeColor=#6c8ebf;" parent="1" vertex="1">
          <mxGeometry x="790" y="660" width="80" height="80" as="geometry" />
        </mxCell>
        <mxCell id="EgX6zlfz2IxhlC0AGUEL-29" value="sbeo:KidsArea" style="ellipse;whiteSpace=wrap;html=1;aspect=fixed;fillColor=#dae8fc;strokeColor=#6c8ebf;" parent="1" vertex="1">
          <mxGeometry x="917" y="660" width="80" height="80" as="geometry" />
        </mxCell>
        <mxCell id="IQOuE0TxBNfk_iXKN2kF-9" style="edgeStyle=orthogonalEdgeStyle;curved=1;comic=0;orthogonalLoop=1;jettySize=auto;html=1;shadow=0;startArrow=classic;startFill=1;endArrow=none;endFill=0;" edge="1" parent="1" source="EgX6zlfz2IxhlC0AGUEL-37" target="EgX6zlfz2IxhlC0AGUEL-42">
          <mxGeometry relative="1" as="geometry" />
        </mxCell>
        <mxCell id="IQOuE0TxBNfk_iXKN2kF-10" style="edgeStyle=orthogonalEdgeStyle;curved=1;comic=0;orthogonalLoop=1;jettySize=auto;html=1;exitX=0.5;exitY=1;exitDx=0;exitDy=0;shadow=0;startArrow=classic;startFill=1;endArrow=none;endFill=0;" edge="1" parent="1" source="EgX6zlfz2IxhlC0AGUEL-37" target="EgX6zlfz2IxhlC0AGUEL-41">
          <mxGeometry relative="1" as="geometry" />
        </mxCell>
        <mxCell id="IQOuE0TxBNfk_iXKN2kF-11" style="edgeStyle=orthogonalEdgeStyle;curved=1;comic=0;orthogonalLoop=1;jettySize=auto;html=1;entryX=0.5;entryY=0;entryDx=0;entryDy=0;shadow=0;startArrow=classic;startFill=1;endArrow=none;endFill=0;exitX=0.5;exitY=1;exitDx=0;exitDy=0;" edge="1" parent="1" source="EgX6zlfz2IxhlC0AGUEL-37" target="EgX6zlfz2IxhlC0AGUEL-40">
          <mxGeometry relative="1" as="geometry" />
        </mxCell>
        <mxCell id="EgX6zlfz2IxhlC0AGUEL-37" value="Sensor" style="ellipse;whiteSpace=wrap;html=1;aspect=fixed;fillColor=#dae8fc;strokeColor=#6c8ebf;" parent="1" vertex="1">
          <mxGeometry x="100" y="460" width="80" height="80" as="geometry" />
        </mxCell>
        <mxCell id="IQOuE0TxBNfk_iXKN2kF-3" style="edgeStyle=orthogonalEdgeStyle;curved=1;comic=0;orthogonalLoop=1;jettySize=auto;html=1;exitX=0.5;exitY=1;exitDx=0;exitDy=0;shadow=0;startArrow=classic;startFill=1;endArrow=none;endFill=0;" edge="1" parent="1" source="EgX6zlfz2IxhlC0AGUEL-38" target="EgX6zlfz2IxhlC0AGUEL-45">
          <mxGeometry relative="1" as="geometry" />
        </mxCell>
        <mxCell id="IQOuE0TxBNfk_iXKN2kF-4" style="edgeStyle=orthogonalEdgeStyle;curved=1;comic=0;orthogonalLoop=1;jettySize=auto;html=1;shadow=0;startArrow=classic;startFill=1;endArrow=none;endFill=0;exitX=0.5;exitY=1;exitDx=0;exitDy=0;" edge="1" parent="1" source="EgX6zlfz2IxhlC0AGUEL-38" target="EgX6zlfz2IxhlC0AGUEL-46">
          <mxGeometry relative="1" as="geometry" />
        </mxCell>
        <mxCell id="EgX6zlfz2IxhlC0AGUEL-38" value="sbeo:Fire&lt;br&gt;Protection" style="ellipse;whiteSpace=wrap;html=1;aspect=fixed;fillColor=#dae8fc;strokeColor=#6c8ebf;" parent="1" vertex="1">
          <mxGeometry x="-80" y="560" width="80" height="80" as="geometry" />
        </mxCell>
        <mxCell id="EgX6zlfz2IxhlC0AGUEL-40" value="&lt;span style=&quot;white-space: normal&quot;&gt;sbeo:Temperature&lt;br&gt;Sensor&lt;br&gt;&lt;/span&gt;" style="ellipse;whiteSpace=wrap;html=1;aspect=fixed;fillColor=#dae8fc;strokeColor=#6c8ebf;" parent="1" vertex="1">
          <mxGeometry x="260" y="585" width="80" height="80" as="geometry" />
        </mxCell>
        <mxCell id="EgX6zlfz2IxhlC0AGUEL-41" value="&lt;span style=&quot;white-space: normal&quot;&gt;sbeo:Smoke&lt;br&gt;Sensor&lt;/span&gt;" style="ellipse;whiteSpace=wrap;html=1;aspect=fixed;fillColor=#dae8fc;strokeColor=#6c8ebf;" parent="1" vertex="1">
          <mxGeometry x="160" y="585" width="80" height="80" as="geometry" />
        </mxCell>
        <mxCell id="EgX6zlfz2IxhlC0AGUEL-42" value="&lt;span style=&quot;white-space: normal&quot;&gt;sbeo:Location&lt;br&gt;Sensor&lt;/span&gt;" style="ellipse;whiteSpace=wrap;html=1;aspect=fixed;fillColor=#dae8fc;strokeColor=#6c8ebf;" parent="1" vertex="1">
          <mxGeometry x="60" y="580" width="80" height="80" as="geometry" />
        </mxCell>
        <mxCell id="EgX6zlfz2IxhlC0AGUEL-43" value="&lt;span style=&quot;white-space: normal&quot;&gt;sbeo:FireDoor&lt;/span&gt;" style="ellipse;whiteSpace=wrap;html=1;aspect=fixed;fillColor=#dae8fc;strokeColor=#6c8ebf;" parent="1" vertex="1">
          <mxGeometry x="-40" y="790" width="80" height="80" as="geometry" />
        </mxCell>
        <mxCell id="EgX6zlfz2IxhlC0AGUEL-44" value="&lt;span style=&quot;white-space: normal&quot;&gt;sbeo:Fire&lt;br&gt;Extinguisher&lt;br&gt;&lt;/span&gt;" style="ellipse;whiteSpace=wrap;html=1;aspect=fixed;fillColor=#dae8fc;strokeColor=#6c8ebf;" parent="1" vertex="1">
          <mxGeometry x="-130" y="790" width="80" height="80" as="geometry" />
        </mxCell>
        <mxCell id="IQOuE0TxBNfk_iXKN2kF-6" style="edgeStyle=orthogonalEdgeStyle;curved=1;comic=0;orthogonalLoop=1;jettySize=auto;html=1;shadow=0;startArrow=classic;startFill=1;endArrow=none;endFill=0;" edge="1" parent="1" source="EgX6zlfz2IxhlC0AGUEL-45" target="EgX6zlfz2IxhlC0AGUEL-44">
          <mxGeometry relative="1" as="geometry" />
        </mxCell>
        <mxCell id="EgX6zlfz2IxhlC0AGUEL-45" value="&lt;span style=&quot;white-space: normal&quot;&gt;sbeo:Passive&lt;br&gt;FrieProtection&lt;br&gt;&lt;/span&gt;" style="ellipse;whiteSpace=wrap;html=1;aspect=fixed;fillColor=#dae8fc;strokeColor=#6c8ebf;" parent="1" vertex="1">
          <mxGeometry x="-130" y="680" width="80" height="80" as="geometry" />
        </mxCell>
        <mxCell id="IQOuE0TxBNfk_iXKN2kF-5" style="edgeStyle=orthogonalEdgeStyle;curved=1;comic=0;orthogonalLoop=1;jettySize=auto;html=1;entryX=0.5;entryY=0;entryDx=0;entryDy=0;shadow=0;startArrow=classic;startFill=1;endArrow=none;endFill=0;" edge="1" parent="1" source="EgX6zlfz2IxhlC0AGUEL-46" target="EgX6zlfz2IxhlC0AGUEL-43">
          <mxGeometry relative="1" as="geometry" />
        </mxCell>
        <mxCell id="EgX6zlfz2IxhlC0AGUEL-46" value="&lt;span style=&quot;white-space: normal&quot;&gt;sbeo:Active&lt;br&gt;FireProtection&lt;/span&gt;" style="ellipse;whiteSpace=wrap;html=1;aspect=fixed;fillColor=#dae8fc;strokeColor=#6c8ebf;" parent="1" vertex="1">
          <mxGeometry x="-40" y="680" width="80" height="80" as="geometry" />
        </mxCell>
        <mxCell id="IQOuE0TxBNfk_iXKN2kF-13" value="&lt;span style=&quot;white-space: normal&quot;&gt;sbeo:Distance&lt;/span&gt;" style="ellipse;whiteSpace=wrap;html=1;aspect=fixed;fillColor=#dae8fc;strokeColor=#6c8ebf;" vertex="1" parent="1">
          <mxGeometry x="-630" y="160" width="80" height="80" as="geometry" />
        </mxCell>
        <mxCell id="IQOuE0TxBNfk_iXKN2kF-17" value="&lt;span style=&quot;white-space: normal&quot;&gt;sbeo:TerroristAttack&lt;/span&gt;" style="ellipse;whiteSpace=wrap;html=1;aspect=fixed;fillColor=#dae8fc;strokeColor=#6c8ebf;" vertex="1" parent="1">
          <mxGeometry x="300" y="350" width="80" height="80" as="geometry" />
        </mxCell>
        <mxCell id="IQOuE0TxBNfk_iXKN2kF-18" value="&lt;span style=&quot;white-space: normal&quot;&gt;sbeo:Stempeding&lt;/span&gt;" style="ellipse;whiteSpace=wrap;html=1;aspect=fixed;fillColor=#dae8fc;strokeColor=#6c8ebf;" vertex="1" parent="1">
          <mxGeometry x="550" y="580" width="80" height="80" as="geometry" />
        </mxCell>
        <mxCell id="IQOuE0TxBNfk_iXKN2kF-30" style="edgeStyle=orthogonalEdgeStyle;curved=1;comic=0;orthogonalLoop=1;jettySize=auto;html=1;entryX=0.5;entryY=0;entryDx=0;entryDy=0;shadow=0;startArrow=classic;startFill=1;endArrow=none;endFill=0;" edge="1" parent="1" source="IQOuE0TxBNfk_iXKN2kF-19" target="IQOuE0TxBNfk_iXKN2kF-18">
          <mxGeometry relative="1" as="geometry" />
        </mxCell>
        <mxCell id="IQOuE0TxBNfk_iXKN2kF-19" value="&lt;span style=&quot;white-space: normal&quot;&gt;sbeo:Panic&lt;/span&gt;" style="ellipse;whiteSpace=wrap;html=1;aspect=fixed;fillColor=#dae8fc;strokeColor=#6c8ebf;" vertex="1" parent="1">
          <mxGeometry x="550" y="450" width="80" height="80" as="geometry" />
        </mxCell>
        <mxCell id="IQOuE0TxBNfk_iXKN2kF-20" value="sbeo:Fire" style="ellipse;whiteSpace=wrap;html=1;aspect=fixed;fillColor=#dae8fc;strokeColor=#6c8ebf;" vertex="1" parent="1">
          <mxGeometry x="440" y="470" width="80" height="80" as="geometry" />
        </mxCell>
        <mxCell id="IQOuE0TxBNfk_iXKN2kF-21" value="&lt;span style=&quot;white-space: normal&quot;&gt;sbeo:Earthquake&lt;/span&gt;" style="ellipse;whiteSpace=wrap;html=1;aspect=fixed;fillColor=#dae8fc;strokeColor=#6c8ebf;" vertex="1" parent="1">
          <mxGeometry x="630" y="370" width="80" height="80" as="geometry" />
        </mxCell>
        <mxCell id="IQOuE0TxBNfk_iXKN2kF-22" value="&lt;span style=&quot;white-space: normal&quot;&gt;sbeo:Congestion&lt;/span&gt;" style="ellipse;whiteSpace=wrap;html=1;aspect=fixed;fillColor=#dae8fc;strokeColor=#6c8ebf;" vertex="1" parent="1">
          <mxGeometry x="350" y="430" width="80" height="80" as="geometry" />
        </mxCell>
        <mxCell id="IQOuE0TxBNfk_iXKN2kF-23" value="&lt;span style=&quot;white-space: normal&quot;&gt;sbeo:Chemcial&lt;br&gt;Spill&lt;/span&gt;" style="ellipse;whiteSpace=wrap;html=1;aspect=fixed;fillColor=#dae8fc;strokeColor=#6c8ebf;" vertex="1" parent="1">
          <mxGeometry x="300" y="250" width="80" height="80" as="geometry" />
        </mxCell>
        <mxCell id="IQOuE0TxBNfk_iXKN2kF-32" value="&lt;span style=&quot;white-space: normal&quot;&gt;sbeo:Dependent&lt;/span&gt;" style="ellipse;whiteSpace=wrap;html=1;aspect=fixed;fillColor=#dae8fc;strokeColor=#6c8ebf;" vertex="1" parent="1">
          <mxGeometry x="-510" y="400" width="80" height="80" as="geometry" />
        </mxCell>
        <mxCell id="IQOuE0TxBNfk_iXKN2kF-33" value="sbeo:Visual" style="ellipse;whiteSpace=wrap;html=1;aspect=fixed;fillColor=#dae8fc;strokeColor=#6c8ebf;" vertex="1" parent="1">
          <mxGeometry x="-413" y="750" width="80" height="80" as="geometry" />
        </mxCell>
        <mxCell id="IQOuE0TxBNfk_iXKN2kF-34" value="&lt;span style=&quot;white-space: normal&quot;&gt;sbeo:Hearing&lt;/span&gt;" style="ellipse;whiteSpace=wrap;html=1;aspect=fixed;fillColor=#dae8fc;strokeColor=#6c8ebf;" vertex="1" parent="1">
          <mxGeometry x="-493" y="700" width="80" height="80" as="geometry" />
        </mxCell>
        <mxCell id="IQOuE0TxBNfk_iXKN2kF-35" value="&lt;span style=&quot;white-space: normal&quot;&gt;sbeo:Non-Motorised&lt;/span&gt;" style="ellipse;whiteSpace=wrap;html=1;aspect=fixed;fillColor=#dae8fc;strokeColor=#6c8ebf;" vertex="1" parent="1">
          <mxGeometry x="-270" y="680" width="80" height="80" as="geometry" />
        </mxCell>
        <mxCell id="IQOuE0TxBNfk_iXKN2kF-36" value="&lt;span style=&quot;white-space: normal&quot;&gt;sbeo:Motorised&lt;/span&gt;" style="ellipse;whiteSpace=wrap;html=1;aspect=fixed;fillColor=#dae8fc;strokeColor=#6c8ebf;" vertex="1" parent="1">
          <mxGeometry x="-360" y="680" width="80" height="80" as="geometry" />
        </mxCell>
        <mxCell id="IQOuE0TxBNfk_iXKN2kF-37" value="&lt;span style=&quot;white-space: normal&quot;&gt;sbeo:Wheel&lt;br&gt;Chair&lt;/span&gt;" style="ellipse;whiteSpace=wrap;html=1;aspect=fixed;fillColor=#dae8fc;strokeColor=#6c8ebf;" vertex="1" parent="1">
          <mxGeometry x="-290" y="580" width="80" height="80" as="geometry" />
        </mxCell>
        <mxCell id="IQOuE0TxBNfk_iXKN2kF-38" value="&lt;span style=&quot;white-space: normal&quot;&gt;sbeo:Low&lt;br&gt;Stamina&lt;/span&gt;" style="ellipse;whiteSpace=wrap;html=1;aspect=fixed;fillColor=#dae8fc;strokeColor=#6c8ebf;" vertex="1" parent="1">
          <mxGeometry x="-380" y="570" width="80" height="80" as="geometry" />
        </mxCell>
        <mxCell id="IQOuE0TxBNfk_iXKN2kF-39" value="&lt;span style=&quot;white-space: normal&quot;&gt;sbeo:Sensory&lt;br&gt;Impairment&lt;/span&gt;" style="ellipse;whiteSpace=wrap;html=1;aspect=fixed;fillColor=#dae8fc;strokeColor=#6c8ebf;" vertex="1" parent="1">
          <mxGeometry x="-200" y="410" width="80" height="80" as="geometry" />
        </mxCell>
        <mxCell id="IQOuE0TxBNfk_iXKN2kF-40" value="&lt;span style=&quot;white-space: normal&quot;&gt;sbeo:Physical&lt;br&gt;Impairment&lt;br&gt;&lt;/span&gt;" style="ellipse;whiteSpace=wrap;html=1;aspect=fixed;fillColor=#dae8fc;strokeColor=#6c8ebf;" vertex="1" parent="1">
          <mxGeometry x="-360" y="450" width="80" height="80" as="geometry" />
        </mxCell>
        <mxCell id="IQOuE0TxBNfk_iXKN2kF-41" value="Visitor" style="ellipse;whiteSpace=wrap;html=1;aspect=fixed;fillColor=#dae8fc;strokeColor=#6c8ebf;" vertex="1" parent="1">
          <mxGeometry x="-450" y="620" width="80" height="80" as="geometry" />
        </mxCell>
        <mxCell id="IQOuE0TxBNfk_iXKN2kF-42" value="&lt;span style=&quot;white-space: normal&quot;&gt;sbeo:Respnsible&lt;/span&gt;" style="ellipse;whiteSpace=wrap;html=1;aspect=fixed;fillColor=#dae8fc;strokeColor=#6c8ebf;" vertex="1" parent="1">
          <mxGeometry x="-540" y="600" width="80" height="80" as="geometry" />
        </mxCell>
        <mxCell id="IQOuE0TxBNfk_iXKN2kF-43" value="&lt;span style=&quot;white-space: normal&quot;&gt;sbeo:Normal&lt;/span&gt;" style="ellipse;whiteSpace=wrap;html=1;aspect=fixed;fillColor=#dae8fc;strokeColor=#6c8ebf;" vertex="1" parent="1">
          <mxGeometry x="-560" y="330" width="80" height="80" as="geometry" />
        </mxCell>
        <mxCell id="IQOuE0TxBNfk_iXKN2kF-44" value="&lt;span style=&quot;white-space: normal&quot;&gt;sbeo:Injured&lt;/span&gt;" style="ellipse;whiteSpace=wrap;html=1;aspect=fixed;fillColor=#dae8fc;strokeColor=#6c8ebf;" vertex="1" parent="1">
          <mxGeometry x="-560" y="490" width="80" height="80" as="geometry" />
        </mxCell>
        <mxCell id="IQOuE0TxBNfk_iXKN2kF-45" value="&lt;span style=&quot;white-space: normal&quot;&gt;sbeo:Impaired&lt;/span&gt;" style="ellipse;whiteSpace=wrap;html=1;aspect=fixed;fillColor=#dae8fc;strokeColor=#6c8ebf;" vertex="1" parent="1">
          <mxGeometry x="-300" y="360" width="80" height="80" as="geometry" />
        </mxCell>
        <mxCell id="IQOuE0TxBNfk_iXKN2kF-46" value="&lt;span style=&quot;white-space: normal&quot;&gt;sbeo:Family&lt;/span&gt;" style="ellipse;whiteSpace=wrap;html=1;aspect=fixed;fillColor=#dae8fc;strokeColor=#6c8ebf;" vertex="1" parent="1">
          <mxGeometry x="-460" y="480" width="80" height="80" as="geometry" />
        </mxCell>
      </root>
    </mxGraphModel>
  </diagram>
</mxfile>
